<?xml version="1.0" standalone="no"?>
<!DOCTYPE svg PUBLIC "-//W3C//DTD SVG 20010904//EN"
 "http://www.w3.org/TR/2001/REC-SVG-20010904/DTD/svg10.dtd">
<svg version="1.0" xmlns="http://www.w3.org/2000/svg"
 width="500.000000pt" height="500.000000pt" viewBox="0 0 500.000000 500.000000"
 preserveAspectRatio="xMidYMid meet">

<g transform="translate(0.000000,500.000000) scale(0.100000,-0.100000)"
fill="#000000" stroke="none">
<path d="M770 3036 c-84 -22 -129 -60 -176 -146 -17 -32 -19 -63 -22 -363 -4
-384 0 -408 75 -488 86 -92 -93 -84 1858 -84 l1720 0 47 23 c67 33 124 99 143
166 14 47 16 104 13 378 -3 303 -4 326 -24 368 -26 58 -76 108 -134 134 l-45
21 -1705 2 c-1326 1 -1715 -1 -1750 -11z m3471 -137 c58 -41 59 -48 59 -399 0
-355 -1 -363 -63 -400 -31 -20 -64 -20 -1735 -20 -1881 0 -1741 -5 -1782 63
-19 30 -20 52 -20 355 0 351 1 359 57 401 l28 20 1713 1 1714 0 29 -21z"/>
<path d="M940 2801 c0 -36 5 -43 69 -95 37 -31 71 -56 75 -56 3 0 6 43 6 95
l0 95 -75 0 -75 0 0 -39z"/>
<path d="M1140 2775 l0 -65 90 0 90 0 0 -129 0 -129 73 -61 72 -60 3 190 2
189 90 0 c50 0 90 3 90 6 0 3 -24 32 -52 65 l-52 59 -203 0 -203 0 0 -65z"/>
<path d="M1716 2828 c5 -8 36 -52 69 -98 59 -81 60 -82 63 -51 l3 31 77 0 c97
0 122 -14 122 -69 0 -49 -30 -71 -95 -71 -25 0 -45 -2 -45 -5 0 -4 19 -33 42
-65 31 -44 48 -60 65 -60 13 0 35 -12 50 -26 20 -20 24 -31 19 -57 -5 -26 0
-41 30 -84 20 -29 42 -53 50 -53 20 0 56 57 61 100 12 86 -28 159 -100 184
l-37 13 37 24 c71 46 95 143 50 210 -12 19 -44 45 -72 59 -46 23 -63 25 -224
28 -150 4 -172 2 -165 -10z"/>
<path d="M2520 2830 c0 -9 265 -649 272 -655 4 -4 75 -8 110 -6 l27 1 -134
308 c-73 169 -138 319 -145 335 -12 25 -18 27 -72 27 -32 0 -58 -4 -58 -10z"/>
<path d="M2970 2500 l0 -340 75 0 75 0 2 216 3 216 144 -216 145 -216 57 0
c32 0 64 3 72 6 18 7 -63 142 -279 459 l-145 215 -75 0 -74 0 0 -340z"/>
<path d="M3420 2698 l0 -143 66 -142 c37 -79 71 -143 76 -143 4 0 7 127 6 283
l-3 282 -72 3 -73 3 0 -143z"/>
<path d="M3630 2500 l0 -340 23 0 c12 0 46 3 75 6 l52 7 0 135 c0 126 2 137
22 159 l22 23 -22 45 c-19 40 -22 62 -22 175 l0 130 -75 0 -75 0 0 -340z"/>
<path d="M4025 2803 c-22 -20 -73 -68 -113 -106 l-74 -69 67 -131 c37 -73 92
-176 122 -229 l54 -98 69 0 70 0 -57 88 c-31 48 -92 141 -136 207 l-80 119
134 128 134 128 -75 0 c-72 -1 -76 -2 -115 -37z"/>
<path d="M2343 2442 c-56 -136 -104 -254 -105 -262 -2 -12 10 -15 67 -15 l70
0 29 73 28 72 119 0 c66 0 119 2 119 5 0 3 -14 30 -31 60 l-31 55 -64 0 c-35
0 -64 2 -64 5 0 3 11 33 25 67 l25 61 -36 64 c-19 34 -38 63 -42 63 -4 0 -53
-112 -109 -248z"/>
<path d="M1700 2411 c0 -132 4 -242 8 -245 15 -9 381 9 391 19 7 7 -3 26 -30
58 l-41 47 -89 0 -89 0 0 74 c0 67 2 75 20 78 17 2 7 19 -67 105 -48 56 -91
102 -95 102 -5 1 -8 -107 -8 -238z"/>
<path d="M940 2381 l0 -208 65 -7 c36 -4 70 -4 75 -1 6 4 10 77 10 170 l0 164
-70 46 c-39 25 -73 45 -75 45 -3 0 -5 -94 -5 -209z"/>
<path d="M1322 2253 l3 -88 73 -3 72 -3 0 49 0 48 -66 42 c-36 23 -70 42 -75
42 -6 0 -9 -35 -7 -87z"/>
</g>
</svg>
