<?xml version="1.0" standalone="no"?>
<!DOCTYPE svg PUBLIC "-//W3C//DTD SVG 20010904//EN"
 "http://www.w3.org/TR/2001/REC-SVG-20010904/DTD/svg10.dtd">
<svg version="1.0" xmlns="http://www.w3.org/2000/svg"
 width="500.000000pt" height="500.000000pt" viewBox="0 0 500.000000 500.000000"
 preserveAspectRatio="xMidYMid meet">

<g transform="translate(0.000000,500.000000) scale(0.100000,-0.100000)"
fill="#000000" stroke="none">
<path d="M2376 3430 c-325 -51 -583 -239 -721 -525 -71 -146 -90 -233 -89
-405 2 -162 18 -244 77 -379 83 -193 247 -365 442 -464 128 -64 329 -104 474
-92 398 31 723 290 841 672 27 88 26 91 -17 95 -37 3 -39 5 -100 118 l-63 115
59 58 c51 49 64 57 97 57 l38 0 -68 -69 -68 -68 68 -102 c46 -69 71 -98 78
-91 16 16 11 235 -7 325 -87 434 -443 740 -882 760 -55 2 -127 0 -159 -5z
m-636 -801 l0 -50 -40 33 c-53 44 -53 68 0 68 l40 0 0 -51z m267 29 c32 -30
29 -36 -19 -40 l-43 -3 -3 -98 -3 -97 -34 26 c-33 25 -34 29 -37 97 l-3 72
-47 3 c-46 3 -48 5 -48 33 l0 29 107 0 c96 0 109 -2 130 -22z m278 7 c33 -13
55 -46 55 -81 0 -9 -13 -29 -29 -45 l-30 -29 28 -15 c16 -8 31 -22 35 -30 11
-30 6 -78 -10 -96 -16 -18 -17 -17 -34 4 -10 13 -20 36 -22 52 -2 20 -11 34
-29 42 -15 7 -34 24 -43 37 -15 24 -15 25 19 36 27 9 35 17 35 35 0 29 -26 45
-74 45 -24 0 -36 -5 -38 -16 -2 -11 -13 -2 -36 30 l-33 46 86 0 c52 0 99 -6
120 -15z m363 -153 c39 -92 72 -171 72 -175 0 -4 -15 -7 -32 -7 -33 0 -33 1
-90 138 -31 75 -64 154 -72 175 l-16 37 32 0 c33 -1 33 -1 106 -168z m293 5
c59 -89 110 -168 113 -174 5 -10 -3 -13 -31 -13 -37 0 -39 3 -113 113 l-75
112 -3 -112 -3 -113 -34 0 -35 0 0 175 0 175 38 0 c37 0 37 -1 143 -163z m129
16 l-1 -148 -34 65 c-30 58 -34 74 -35 148 l0 82 35 0 35 0 0 -147z m120 76
c0 -39 5 -80 11 -91 8 -14 8 -23 0 -31 -6 -6 -11 -44 -11 -84 l0 -73 -40 0
-40 0 0 175 0 175 40 0 40 0 0 -71z m-690 -49 c10 -24 10 -37 1 -56 -17 -38
-14 -44 24 -44 28 0 37 -5 50 -30 l16 -30 -65 0 -65 0 -12 -35 c-12 -32 -17
-35 -52 -35 -27 0 -38 4 -34 13 53 131 111 256 117 252 4 -2 13 -18 20 -35z
m-341 -88 c-5 -2 -9 -21 -9 -43 l0 -39 48 -1 c40 0 51 -5 70 -30 l24 -29 -106
0 -106 0 0 121 0 121 44 -49 c24 -26 40 -49 35 -51z m-421 -56 l3 -86 -41 0
-40 0 0 110 0 110 38 -23 37 -24 3 -87z m175 -25 c18 -10 27 -22 27 -38 0 -20
-5 -23 -35 -23 -34 0 -35 1 -35 41 0 22 3 39 8 37 4 -2 19 -10 35 -17z"/>
</g>
</svg>
